<mxfile host="app.diagrams.net" agent="Mozilla/5.0 (Windows NT 10.0; Win64; x64) AppleWebKit/537.36 (KHTML, like Gecko) Chrome/136.0.0.0 Safari/537.36" version="27.0.6">
  <diagram name="第 1 页" id="lMS9jua2yjPciFoXlcF-">
    <mxGraphModel dx="1188" dy="626" grid="1" gridSize="10" guides="1" tooltips="1" connect="1" arrows="1" fold="1" page="1" pageScale="1" pageWidth="4681" pageHeight="3300" math="0" shadow="0">
      <root>
        <mxCell id="0" />
        <mxCell id="1" parent="0" />
        <mxCell id="2_Mty83IuTYaTWN7wXRP-2" value="User Chat Request" style="rounded=1;whiteSpace=wrap;html=1;strokeColor=#FF8000;strokeWidth=2;" parent="1" vertex="1">
          <mxGeometry x="190" y="240" width="120" height="50" as="geometry" />
        </mxCell>
        <mxCell id="2_Mty83IuTYaTWN7wXRP-6" value="" style="group;fillColor=none;fillStyle=dashed;" parent="1" vertex="1" connectable="0">
          <mxGeometry x="470" y="180" width="380" height="230" as="geometry" />
        </mxCell>
        <mxCell id="2_Mty83IuTYaTWN7wXRP-4" value="" style="rounded=1;whiteSpace=wrap;html=1;strokeColor=#FF8000;strokeWidth=2;" parent="2_Mty83IuTYaTWN7wXRP-6" vertex="1">
          <mxGeometry width="380" height="230" as="geometry" />
        </mxCell>
        <mxCell id="2_Mty83IuTYaTWN7wXRP-5" value="" style="endArrow=none;html=1;rounded=0;strokeColor=#FF8000;strokeWidth=2;" parent="2_Mty83IuTYaTWN7wXRP-6" edge="1">
          <mxGeometry width="50" height="50" relative="1" as="geometry">
            <mxPoint y="50.00333333333334" as="sourcePoint" />
            <mxPoint x="380" y="50.00333333333334" as="targetPoint" />
          </mxGeometry>
        </mxCell>
        <mxCell id="2_Mty83IuTYaTWN7wXRP-7" value="&lt;font style=&quot;font-size: 18px;&quot;&gt;Excel Agent&lt;/font&gt;" style="text;html=1;align=center;verticalAlign=middle;resizable=0;points=[];autosize=1;strokeColor=none;fillColor=none;fontSize=15;fontFamily=Verdana;" parent="2_Mty83IuTYaTWN7wXRP-6" vertex="1">
          <mxGeometry x="9" y="5" width="130" height="40" as="geometry" />
        </mxCell>
        <mxCell id="2_Mty83IuTYaTWN7wXRP-14" value="Route" style="rounded=1;whiteSpace=wrap;html=1;strokeColor=#FF8000;strokeWidth=2;" parent="2_Mty83IuTYaTWN7wXRP-6" vertex="1">
          <mxGeometry x="30" y="110" width="120" height="30" as="geometry" />
        </mxCell>
        <mxCell id="2_Mty83IuTYaTWN7wXRP-15" value="Rule" style="rounded=1;whiteSpace=wrap;html=1;strokeColor=#FF8000;strokeWidth=2;" parent="2_Mty83IuTYaTWN7wXRP-6" vertex="1">
          <mxGeometry x="30" y="150" width="120" height="30" as="geometry" />
        </mxCell>
        <mxCell id="2_Mty83IuTYaTWN7wXRP-16" value="Other...Agent" style="rounded=1;whiteSpace=wrap;html=1;strokeColor=#FF8000;strokeWidth=2;" parent="2_Mty83IuTYaTWN7wXRP-6" vertex="1">
          <mxGeometry x="30" y="190" width="120" height="30" as="geometry" />
        </mxCell>
        <mxCell id="2_Mty83IuTYaTWN7wXRP-17" value="History" style="rounded=1;whiteSpace=wrap;html=1;strokeColor=#FF8000;strokeWidth=2;fillColor=none;" parent="2_Mty83IuTYaTWN7wXRP-6" vertex="1">
          <mxGeometry x="30" y="70" width="120" height="30" as="geometry" />
        </mxCell>
        <mxCell id="2_Mty83IuTYaTWN7wXRP-19" value="Tools" style="rounded=1;whiteSpace=wrap;html=1;strokeColor=#FF8000;strokeWidth=2;" parent="2_Mty83IuTYaTWN7wXRP-6" vertex="1">
          <mxGeometry x="230" y="85" width="100" height="125" as="geometry" />
        </mxCell>
        <mxCell id="2_Mty83IuTYaTWN7wXRP-18" value="" style="endArrow=classic;html=1;rounded=0;edgeStyle=orthogonalEdgeStyle;strokeWidth=2;exitX=0.996;exitY=0.399;exitDx=0;exitDy=0;exitPerimeter=0;" parent="1" source="2_Mty83IuTYaTWN7wXRP-2" edge="1">
          <mxGeometry width="50" height="50" relative="1" as="geometry">
            <mxPoint x="330" y="260" as="sourcePoint" />
            <mxPoint x="520" y="480" as="targetPoint" />
            <Array as="points">
              <mxPoint x="520" y="260" />
            </Array>
          </mxGeometry>
        </mxCell>
        <mxCell id="2_Mty83IuTYaTWN7wXRP-12" value="&lt;font style=&quot;font-size: 21px;&quot;&gt;AI model&lt;/font&gt;" style="rounded=1;whiteSpace=wrap;html=1;strokeColor=#FF8000;strokeWidth=2;fillColor=#FF8000;" parent="1" vertex="1">
          <mxGeometry x="459" y="480" width="410" height="60" as="geometry" />
        </mxCell>
        <mxCell id="2_Mty83IuTYaTWN7wXRP-20" value="查询Excel" style="rounded=1;whiteSpace=wrap;html=1;strokeColor=#FF8000;strokeWidth=2;" parent="1" vertex="1">
          <mxGeometry x="930" y="286" width="120" height="40" as="geometry" />
        </mxCell>
        <mxCell id="2_Mty83IuTYaTWN7wXRP-21" value="分析Excel" style="rounded=1;whiteSpace=wrap;html=1;strokeColor=#FF8000;strokeWidth=2;" parent="1" vertex="1">
          <mxGeometry x="930" y="230" width="120" height="40" as="geometry" />
        </mxCell>
        <mxCell id="2_Mty83IuTYaTWN7wXRP-22" value="更新Excel" style="rounded=1;whiteSpace=wrap;html=1;strokeColor=#FF8000;strokeWidth=2;" parent="1" vertex="1">
          <mxGeometry x="930" y="340" width="120" height="40" as="geometry" />
        </mxCell>
        <mxCell id="2_Mty83IuTYaTWN7wXRP-23" value="" style="endArrow=classic;html=1;rounded=0;exitX=0.71;exitY=0.033;exitDx=0;exitDy=0;exitPerimeter=0;entryX=0.5;entryY=1;entryDx=0;entryDy=0;strokeWidth=2;" parent="1" source="2_Mty83IuTYaTWN7wXRP-12" target="2_Mty83IuTYaTWN7wXRP-19" edge="1">
          <mxGeometry width="50" height="50" relative="1" as="geometry">
            <mxPoint x="700" y="410" as="sourcePoint" />
            <mxPoint x="750" y="360" as="targetPoint" />
          </mxGeometry>
        </mxCell>
        <mxCell id="2_Mty83IuTYaTWN7wXRP-24" value="" style="endArrow=classic;html=1;rounded=0;exitX=1;exitY=0.5;exitDx=0;exitDy=0;entryX=0;entryY=0.5;entryDx=0;entryDy=0;strokeWidth=2;" parent="1" source="2_Mty83IuTYaTWN7wXRP-19" target="2_Mty83IuTYaTWN7wXRP-21" edge="1">
          <mxGeometry width="50" height="50" relative="1" as="geometry">
            <mxPoint x="810" y="320" as="sourcePoint" />
            <mxPoint x="860" y="270" as="targetPoint" />
          </mxGeometry>
        </mxCell>
        <mxCell id="2_Mty83IuTYaTWN7wXRP-25" value="" style="endArrow=classic;html=1;rounded=0;entryX=0;entryY=0.5;entryDx=0;entryDy=0;strokeWidth=2;" parent="1" target="2_Mty83IuTYaTWN7wXRP-20" edge="1">
          <mxGeometry width="50" height="50" relative="1" as="geometry">
            <mxPoint x="800" y="330" as="sourcePoint" />
            <mxPoint x="940" y="250" as="targetPoint" />
          </mxGeometry>
        </mxCell>
        <mxCell id="2_Mty83IuTYaTWN7wXRP-26" value="" style="endArrow=classic;html=1;rounded=0;entryX=0;entryY=0.5;entryDx=0;entryDy=0;strokeWidth=2;" parent="1" target="2_Mty83IuTYaTWN7wXRP-22" edge="1">
          <mxGeometry width="50" height="50" relative="1" as="geometry">
            <mxPoint x="800" y="330" as="sourcePoint" />
            <mxPoint x="940" y="320" as="targetPoint" />
          </mxGeometry>
        </mxCell>
        <mxCell id="2_Mty83IuTYaTWN7wXRP-27" value="" style="endArrow=classic;html=1;rounded=0;exitX=-0.005;exitY=0.435;exitDx=0;exitDy=0;exitPerimeter=0;strokeWidth=2;" parent="1" source="2_Mty83IuTYaTWN7wXRP-4" edge="1">
          <mxGeometry width="50" height="50" relative="1" as="geometry">
            <mxPoint x="450" y="280" as="sourcePoint" />
            <mxPoint x="310" y="280" as="targetPoint" />
          </mxGeometry>
        </mxCell>
        <mxCell id="2_Mty83IuTYaTWN7wXRP-29" value="&lt;font style=&quot;font-size: 16px;&quot;&gt;1&lt;/font&gt;" style="ellipse;whiteSpace=wrap;html=1;fillColor=none;strokeColor=#999900;" parent="1" vertex="1">
          <mxGeometry x="370" y="220" width="30" height="30" as="geometry" />
        </mxCell>
        <mxCell id="2_Mty83IuTYaTWN7wXRP-30" value="&lt;font style=&quot;font-size: 16px;&quot;&gt;5&lt;/font&gt;" style="ellipse;whiteSpace=wrap;html=1;fillColor=none;strokeColor=#999900;" parent="1" vertex="1">
          <mxGeometry x="370" y="296" width="30" height="30" as="geometry" />
        </mxCell>
        <mxCell id="2_Mty83IuTYaTWN7wXRP-31" value="&lt;font style=&quot;font-size: 16px;&quot;&gt;3&lt;/font&gt;" style="ellipse;whiteSpace=wrap;html=1;fillColor=none;strokeColor=#999900;" parent="1" vertex="1">
          <mxGeometry x="760" y="430" width="30" height="30" as="geometry" />
        </mxCell>
        <mxCell id="2_Mty83IuTYaTWN7wXRP-32" value="&lt;font style=&quot;font-size: 16px;&quot;&gt;4&lt;/font&gt;" style="ellipse;whiteSpace=wrap;html=1;fillColor=none;strokeColor=#999900;" parent="1" vertex="1">
          <mxGeometry x="890" y="317" width="30" height="30" as="geometry" />
        </mxCell>
        <mxCell id="2_Mty83IuTYaTWN7wXRP-33" value="More" style="rounded=1;whiteSpace=wrap;html=1;strokeColor=#FF8000;strokeWidth=2;" parent="1" vertex="1">
          <mxGeometry x="930" y="390" width="120" height="40" as="geometry" />
        </mxCell>
        <mxCell id="2_Mty83IuTYaTWN7wXRP-34" value="" style="endArrow=classic;html=1;rounded=0;entryX=0;entryY=0.5;entryDx=0;entryDy=0;strokeWidth=2;exitX=1.008;exitY=0.545;exitDx=0;exitDy=0;exitPerimeter=0;" parent="1" source="2_Mty83IuTYaTWN7wXRP-19" target="2_Mty83IuTYaTWN7wXRP-33" edge="1">
          <mxGeometry width="50" height="50" relative="1" as="geometry">
            <mxPoint x="810" y="340" as="sourcePoint" />
            <mxPoint x="940" y="370" as="targetPoint" />
          </mxGeometry>
        </mxCell>
        <mxCell id="u-bmeiGmhYx5XkkNCnXn-22" style="edgeStyle=orthogonalEdgeStyle;rounded=0;orthogonalLoop=1;jettySize=auto;html=1;exitX=0.5;exitY=1;exitDx=0;exitDy=0;entryX=0.5;entryY=0;entryDx=0;entryDy=0;" parent="1" source="u-bmeiGmhYx5XkkNCnXn-1" target="u-bmeiGmhYx5XkkNCnXn-2" edge="1">
          <mxGeometry relative="1" as="geometry" />
        </mxCell>
        <mxCell id="u-bmeiGmhYx5XkkNCnXn-1" value="用户输入" style="rounded=0;whiteSpace=wrap;html=1;" parent="1" vertex="1">
          <mxGeometry x="1922.5" y="235" width="125" height="30" as="geometry" />
        </mxCell>
        <mxCell id="u-bmeiGmhYx5XkkNCnXn-10" style="edgeStyle=orthogonalEdgeStyle;rounded=0;orthogonalLoop=1;jettySize=auto;html=1;exitX=0.5;exitY=1;exitDx=0;exitDy=0;entryX=0.5;entryY=0;entryDx=0;entryDy=0;" parent="1" source="u-bmeiGmhYx5XkkNCnXn-2" target="u-bmeiGmhYx5XkkNCnXn-6" edge="1">
          <mxGeometry relative="1" as="geometry" />
        </mxCell>
        <mxCell id="u-bmeiGmhYx5XkkNCnXn-11" style="edgeStyle=orthogonalEdgeStyle;rounded=0;orthogonalLoop=1;jettySize=auto;html=1;exitX=0.5;exitY=1;exitDx=0;exitDy=0;entryX=0.5;entryY=0;entryDx=0;entryDy=0;" parent="1" source="u-bmeiGmhYx5XkkNCnXn-2" target="u-bmeiGmhYx5XkkNCnXn-7" edge="1">
          <mxGeometry relative="1" as="geometry" />
        </mxCell>
        <mxCell id="u-bmeiGmhYx5XkkNCnXn-12" style="edgeStyle=orthogonalEdgeStyle;rounded=0;orthogonalLoop=1;jettySize=auto;html=1;exitX=0.5;exitY=1;exitDx=0;exitDy=0;entryX=0.5;entryY=0;entryDx=0;entryDy=0;" parent="1" source="u-bmeiGmhYx5XkkNCnXn-2" target="u-bmeiGmhYx5XkkNCnXn-8" edge="1">
          <mxGeometry relative="1" as="geometry" />
        </mxCell>
        <mxCell id="u-bmeiGmhYx5XkkNCnXn-13" style="edgeStyle=orthogonalEdgeStyle;rounded=0;orthogonalLoop=1;jettySize=auto;html=1;exitX=0.5;exitY=1;exitDx=0;exitDy=0;entryX=0.5;entryY=0;entryDx=0;entryDy=0;" parent="1" source="u-bmeiGmhYx5XkkNCnXn-2" target="u-bmeiGmhYx5XkkNCnXn-9" edge="1">
          <mxGeometry relative="1" as="geometry" />
        </mxCell>
        <mxCell id="u-bmeiGmhYx5XkkNCnXn-2" value="规则判定" style="rhombus;whiteSpace=wrap;html=1;" parent="1" vertex="1">
          <mxGeometry x="1920" y="300" width="130" height="64" as="geometry" />
        </mxCell>
        <mxCell id="u-bmeiGmhYx5XkkNCnXn-3" value="规则管理" style="rounded=0;whiteSpace=wrap;html=1;" parent="1" vertex="1">
          <mxGeometry x="1340" y="90" width="130" height="30" as="geometry" />
        </mxCell>
        <mxCell id="u-bmeiGmhYx5XkkNCnXn-4" value="版本管理" style="rounded=0;whiteSpace=wrap;html=1;" parent="1" vertex="1">
          <mxGeometry x="1340" y="150" width="130" height="30" as="geometry" />
        </mxCell>
        <mxCell id="u-bmeiGmhYx5XkkNCnXn-5" value="界面操作" style="rounded=0;whiteSpace=wrap;html=1;" parent="1" vertex="1">
          <mxGeometry x="1340" y="210" width="130" height="30" as="geometry" />
        </mxCell>
        <mxCell id="u-bmeiGmhYx5XkkNCnXn-6" value="规则A" style="rounded=1;whiteSpace=wrap;html=1;" parent="1" vertex="1">
          <mxGeometry x="1800" y="410" width="70" height="40" as="geometry" />
        </mxCell>
        <mxCell id="u-bmeiGmhYx5XkkNCnXn-7" value="规则B" style="rounded=1;whiteSpace=wrap;html=1;" parent="1" vertex="1">
          <mxGeometry x="1900" y="410" width="70" height="40" as="geometry" />
        </mxCell>
        <mxCell id="u-bmeiGmhYx5XkkNCnXn-8" value="规则C" style="rounded=1;whiteSpace=wrap;html=1;" parent="1" vertex="1">
          <mxGeometry x="1995" y="410" width="70" height="40" as="geometry" />
        </mxCell>
        <mxCell id="u-bmeiGmhYx5XkkNCnXn-9" value="非定义规则" style="rounded=1;whiteSpace=wrap;html=1;" parent="1" vertex="1">
          <mxGeometry x="2100" y="410" width="70" height="40" as="geometry" />
        </mxCell>
        <mxCell id="u-bmeiGmhYx5XkkNCnXn-14" value="输出" style="rounded=1;whiteSpace=wrap;html=1;" parent="1" vertex="1">
          <mxGeometry x="1796.5" y="670" width="380" height="30" as="geometry" />
        </mxCell>
        <mxCell id="u-bmeiGmhYx5XkkNCnXn-19" style="edgeStyle=orthogonalEdgeStyle;rounded=0;orthogonalLoop=1;jettySize=auto;html=1;exitX=0.5;exitY=1;exitDx=0;exitDy=0;" parent="1" source="u-bmeiGmhYx5XkkNCnXn-15" target="u-bmeiGmhYx5XkkNCnXn-16" edge="1">
          <mxGeometry relative="1" as="geometry" />
        </mxCell>
        <mxCell id="u-bmeiGmhYx5XkkNCnXn-15" value="加载相关表" style="rounded=0;whiteSpace=wrap;html=1;" parent="1" vertex="1">
          <mxGeometry x="1803" y="490" width="367" height="30" as="geometry" />
        </mxCell>
        <mxCell id="u-bmeiGmhYx5XkkNCnXn-20" style="edgeStyle=orthogonalEdgeStyle;rounded=0;orthogonalLoop=1;jettySize=auto;html=1;exitX=0.5;exitY=1;exitDx=0;exitDy=0;entryX=0.5;entryY=0;entryDx=0;entryDy=0;" parent="1" source="u-bmeiGmhYx5XkkNCnXn-16" target="u-bmeiGmhYx5XkkNCnXn-17" edge="1">
          <mxGeometry relative="1" as="geometry" />
        </mxCell>
        <mxCell id="u-bmeiGmhYx5XkkNCnXn-16" value="加载规则内容" style="rounded=0;whiteSpace=wrap;html=1;" parent="1" vertex="1">
          <mxGeometry x="1803" y="550" width="367" height="30" as="geometry" />
        </mxCell>
        <mxCell id="u-bmeiGmhYx5XkkNCnXn-21" style="edgeStyle=orthogonalEdgeStyle;rounded=0;orthogonalLoop=1;jettySize=auto;html=1;exitX=0.5;exitY=1;exitDx=0;exitDy=0;" parent="1" source="u-bmeiGmhYx5XkkNCnXn-17" target="u-bmeiGmhYx5XkkNCnXn-14" edge="1">
          <mxGeometry relative="1" as="geometry" />
        </mxCell>
        <mxCell id="u-bmeiGmhYx5XkkNCnXn-17" value="进行处理" style="rounded=0;whiteSpace=wrap;html=1;" parent="1" vertex="1">
          <mxGeometry x="1803" y="610" width="367" height="30" as="geometry" />
        </mxCell>
        <mxCell id="u-bmeiGmhYx5XkkNCnXn-18" style="edgeStyle=orthogonalEdgeStyle;rounded=0;orthogonalLoop=1;jettySize=auto;html=1;exitX=0.5;exitY=1;exitDx=0;exitDy=0;" parent="1" source="u-bmeiGmhYx5XkkNCnXn-6" edge="1">
          <mxGeometry relative="1" as="geometry">
            <mxPoint x="1835" y="490" as="targetPoint" />
          </mxGeometry>
        </mxCell>
        <mxCell id="u-bmeiGmhYx5XkkNCnXn-24" value="提前拉取判定规则" style="text;html=1;align=center;verticalAlign=middle;resizable=0;points=[];autosize=1;strokeColor=none;fillColor=none;" parent="1" vertex="1">
          <mxGeometry x="2540" y="250" width="120" height="30" as="geometry" />
        </mxCell>
        <mxCell id="u-bmeiGmhYx5XkkNCnXn-25" value="提前拉取表规则" style="text;html=1;align=center;verticalAlign=middle;resizable=0;points=[];autosize=1;strokeColor=none;fillColor=none;" parent="1" vertex="1">
          <mxGeometry x="2540" y="280" width="110" height="30" as="geometry" />
        </mxCell>
        <mxCell id="u-bmeiGmhYx5XkkNCnXn-26" value="相关表管理" style="text;html=1;align=center;verticalAlign=middle;resizable=0;points=[];autosize=1;strokeColor=none;fillColor=none;" parent="1" vertex="1">
          <mxGeometry x="2430" y="500" width="80" height="30" as="geometry" />
        </mxCell>
        <mxCell id="u-bmeiGmhYx5XkkNCnXn-27" value="基表管理" style="text;html=1;align=center;verticalAlign=middle;resizable=0;points=[];autosize=1;strokeColor=none;fillColor=none;" parent="1" vertex="1">
          <mxGeometry x="2520" y="490" width="70" height="30" as="geometry" />
        </mxCell>
        <mxCell id="u-bmeiGmhYx5XkkNCnXn-28" value="获取表规则" style="text;html=1;align=center;verticalAlign=middle;resizable=0;points=[];autosize=1;strokeColor=none;fillColor=none;" parent="1" vertex="1">
          <mxGeometry x="2520" y="530" width="80" height="30" as="geometry" />
        </mxCell>
        <mxCell id="u-bmeiGmhYx5XkkNCnXn-29" value="确定规则： 得到相关规则内容" style="text;html=1;align=center;verticalAlign=middle;resizable=0;points=[];autosize=1;strokeColor=none;fillColor=none;" parent="1" vertex="1">
          <mxGeometry x="2200" y="334" width="180" height="30" as="geometry" />
        </mxCell>
        <mxCell id="u-bmeiGmhYx5XkkNCnXn-30" value="确定有关表的配置内容" style="text;html=1;align=center;verticalAlign=middle;resizable=0;points=[];autosize=1;strokeColor=none;fillColor=none;" parent="1" vertex="1">
          <mxGeometry x="2300" y="720" width="140" height="30" as="geometry" />
        </mxCell>
        <mxCell id="u-bmeiGmhYx5XkkNCnXn-31" value="确定有关表的配置内容" style="text;html=1;align=center;verticalAlign=middle;resizable=0;points=[];autosize=1;strokeColor=none;fillColor=none;" parent="1" vertex="1">
          <mxGeometry x="2300" y="770" width="140" height="30" as="geometry" />
        </mxCell>
        <mxCell id="_TTQdavlwrZ-r9L4tjRO-7" value="" style="group" vertex="1" connectable="0" parent="1">
          <mxGeometry x="871" y="705" width="190" height="545" as="geometry" />
        </mxCell>
        <mxCell id="_TTQdavlwrZ-r9L4tjRO-3" value="反思智能体" style="rounded=0;whiteSpace=wrap;html=1;" vertex="1" parent="_TTQdavlwrZ-r9L4tjRO-7">
          <mxGeometry width="171" height="45" as="geometry" />
        </mxCell>
        <mxCell id="_TTQdavlwrZ-r9L4tjRO-6" value="" style="endArrow=none;html=1;rounded=0;entryX=0.5;entryY=1;entryDx=0;entryDy=0;" edge="1" parent="_TTQdavlwrZ-r9L4tjRO-7">
          <mxGeometry width="50" height="50" relative="1" as="geometry">
            <mxPoint x="90" y="545" as="sourcePoint" />
            <mxPoint x="90" y="45" as="targetPoint" />
          </mxGeometry>
        </mxCell>
        <mxCell id="_TTQdavlwrZ-r9L4tjRO-22" value="任务评判" style="rounded=0;whiteSpace=wrap;html=1;" vertex="1" parent="_TTQdavlwrZ-r9L4tjRO-7">
          <mxGeometry x="119" y="165" width="90" height="35" as="geometry" />
        </mxCell>
        <mxCell id="_TTQdavlwrZ-r9L4tjRO-8" value="" style="group" vertex="1" connectable="0" parent="1">
          <mxGeometry x="574.5" y="705" width="235.5" height="545" as="geometry" />
        </mxCell>
        <mxCell id="_TTQdavlwrZ-r9L4tjRO-2" value="专业智能体" style="rounded=0;whiteSpace=wrap;html=1;" vertex="1" parent="_TTQdavlwrZ-r9L4tjRO-8">
          <mxGeometry width="171" height="45" as="geometry" />
        </mxCell>
        <mxCell id="_TTQdavlwrZ-r9L4tjRO-5" value="" style="endArrow=none;html=1;rounded=0;entryX=0.5;entryY=1;entryDx=0;entryDy=0;" edge="1" parent="_TTQdavlwrZ-r9L4tjRO-8">
          <mxGeometry width="50" height="50" relative="1" as="geometry">
            <mxPoint x="89" y="545" as="sourcePoint" />
            <mxPoint x="89" y="45" as="targetPoint" />
          </mxGeometry>
        </mxCell>
        <mxCell id="_TTQdavlwrZ-r9L4tjRO-11" value="执行搜集任务" style="rounded=0;whiteSpace=wrap;html=1;" vertex="1" parent="_TTQdavlwrZ-r9L4tjRO-8">
          <mxGeometry x="105.5" y="115" width="104.5" height="35" as="geometry" />
        </mxCell>
        <mxCell id="_TTQdavlwrZ-r9L4tjRO-15" value="" style="curved=1;endArrow=classic;html=1;rounded=0;fillColor=#fff2cc;strokeColor=#d6b656;" edge="1" parent="_TTQdavlwrZ-r9L4tjRO-8">
          <mxGeometry width="50" height="50" relative="1" as="geometry">
            <mxPoint x="205.5" y="122.5" as="sourcePoint" />
            <mxPoint x="205.5" y="142.5" as="targetPoint" />
            <Array as="points">
              <mxPoint x="225.5" y="122.5" />
              <mxPoint x="225.5" y="142.5" />
            </Array>
          </mxGeometry>
        </mxCell>
        <mxCell id="_TTQdavlwrZ-r9L4tjRO-34" value="&lt;span style=&quot;text-wrap-mode: nowrap;&quot;&gt;结论&lt;/span&gt;" style="rounded=0;whiteSpace=wrap;html=1;fillColor=#ffe6cc;strokeColor=#d79b00;" vertex="1" parent="_TTQdavlwrZ-r9L4tjRO-8">
          <mxGeometry x="145.5" y="225" width="54.5" height="20" as="geometry" />
        </mxCell>
        <mxCell id="_TTQdavlwrZ-r9L4tjRO-9" value="" style="group" vertex="1" connectable="0" parent="1">
          <mxGeometry x="330" y="705" width="211" height="545" as="geometry" />
        </mxCell>
        <mxCell id="_TTQdavlwrZ-r9L4tjRO-1" value="协调智能体" style="rounded=0;whiteSpace=wrap;html=1;" vertex="1" parent="_TTQdavlwrZ-r9L4tjRO-9">
          <mxGeometry width="151" height="45" as="geometry" />
        </mxCell>
        <mxCell id="_TTQdavlwrZ-r9L4tjRO-4" value="" style="endArrow=none;html=1;rounded=0;entryX=0.5;entryY=1;entryDx=0;entryDy=0;" edge="1" parent="_TTQdavlwrZ-r9L4tjRO-9" target="_TTQdavlwrZ-r9L4tjRO-1">
          <mxGeometry width="50" height="50" relative="1" as="geometry">
            <mxPoint x="76" y="545" as="sourcePoint" />
            <mxPoint x="151" y="485" as="targetPoint" />
          </mxGeometry>
        </mxCell>
        <mxCell id="_TTQdavlwrZ-r9L4tjRO-10" value="布置收集任务" style="rounded=0;whiteSpace=wrap;html=1;" vertex="1" parent="_TTQdavlwrZ-r9L4tjRO-9">
          <mxGeometry x="90" y="95" width="90" height="35" as="geometry" />
        </mxCell>
        <mxCell id="_TTQdavlwrZ-r9L4tjRO-31" value="下一步任务" style="rounded=0;whiteSpace=wrap;html=1;" vertex="1" parent="_TTQdavlwrZ-r9L4tjRO-9">
          <mxGeometry x="91" y="235" width="89" height="25" as="geometry" />
        </mxCell>
        <mxCell id="_TTQdavlwrZ-r9L4tjRO-12" value="" style="curved=1;endArrow=classic;html=1;rounded=0;" edge="1" parent="1">
          <mxGeometry width="50" height="50" relative="1" as="geometry">
            <mxPoint x="1370" y="940" as="sourcePoint" />
            <mxPoint x="1370" y="960" as="targetPoint" />
            <Array as="points">
              <mxPoint x="1390" y="940" />
              <mxPoint x="1390" y="960" />
            </Array>
          </mxGeometry>
        </mxCell>
        <mxCell id="_TTQdavlwrZ-r9L4tjRO-13" value="" style="curved=1;endArrow=classic;html=1;rounded=0;" edge="1" parent="1">
          <mxGeometry width="50" height="50" relative="1" as="geometry">
            <mxPoint x="1340" y="1000" as="sourcePoint" />
            <mxPoint x="1340" y="1020" as="targetPoint" />
            <Array as="points">
              <mxPoint x="1360" y="1000" />
              <mxPoint x="1390" y="1000" />
              <mxPoint x="1390" y="1020" />
              <mxPoint x="1360" y="1020" />
            </Array>
          </mxGeometry>
        </mxCell>
        <mxCell id="_TTQdavlwrZ-r9L4tjRO-17" value="" style="endArrow=classic;html=1;rounded=0;" edge="1" parent="1">
          <mxGeometry width="50" height="50" relative="1" as="geometry">
            <mxPoint x="1350" y="1100" as="sourcePoint" />
            <mxPoint x="1400" y="1050" as="targetPoint" />
          </mxGeometry>
        </mxCell>
        <mxCell id="_TTQdavlwrZ-r9L4tjRO-27" value="" style="endArrow=classic;html=1;rounded=0;exitX=1;exitY=0.5;exitDx=0;exitDy=0;edgeStyle=orthogonalEdgeStyle;entryX=0;entryY=0.5;entryDx=0;entryDy=0;" edge="1" parent="1" source="_TTQdavlwrZ-r9L4tjRO-10" target="_TTQdavlwrZ-r9L4tjRO-11">
          <mxGeometry width="50" height="50" relative="1" as="geometry">
            <mxPoint x="550" y="960" as="sourcePoint" />
            <mxPoint x="600" y="910" as="targetPoint" />
            <Array as="points">
              <mxPoint x="580" y="818" />
              <mxPoint x="580" y="838" />
            </Array>
          </mxGeometry>
        </mxCell>
        <mxCell id="_TTQdavlwrZ-r9L4tjRO-28" value="&lt;span style=&quot;text-wrap-mode: nowrap;&quot;&gt;工具调用&lt;/span&gt;" style="rounded=0;whiteSpace=wrap;html=1;fillColor=#ffe6cc;strokeColor=#d79b00;" vertex="1" parent="1">
          <mxGeometry x="809" y="830" width="60" height="20" as="geometry" />
        </mxCell>
        <mxCell id="_TTQdavlwrZ-r9L4tjRO-29" value="" style="endArrow=classic;html=1;rounded=0;edgeStyle=orthogonalEdgeStyle;exitX=0.5;exitY=1;exitDx=0;exitDy=0;fillColor=#ffe6cc;strokeColor=#d79b00;" edge="1" parent="1" source="_TTQdavlwrZ-r9L4tjRO-11" target="_TTQdavlwrZ-r9L4tjRO-22">
          <mxGeometry width="50" height="50" relative="1" as="geometry">
            <mxPoint x="700" y="860" as="sourcePoint" />
            <mxPoint x="927.97" y="892.5" as="targetPoint" />
            <Array as="points">
              <mxPoint x="732" y="860" />
              <mxPoint x="732" y="890" />
            </Array>
          </mxGeometry>
        </mxCell>
        <mxCell id="_TTQdavlwrZ-r9L4tjRO-30" value="&lt;span style=&quot;text-wrap-mode: nowrap;&quot;&gt;工具调用输出&lt;/span&gt;" style="rounded=0;whiteSpace=wrap;html=1;fillColor=#ffe6cc;strokeColor=#d79b00;" vertex="1" parent="1">
          <mxGeometry x="800" y="890" width="90" height="20" as="geometry" />
        </mxCell>
        <mxCell id="_TTQdavlwrZ-r9L4tjRO-32" style="edgeStyle=orthogonalEdgeStyle;rounded=0;orthogonalLoop=1;jettySize=auto;html=1;exitX=0.5;exitY=1;exitDx=0;exitDy=0;entryX=1;entryY=0.5;entryDx=0;entryDy=0;fillColor=#fff2cc;strokeColor=#d6b656;" edge="1" parent="1" source="_TTQdavlwrZ-r9L4tjRO-22" target="_TTQdavlwrZ-r9L4tjRO-31">
          <mxGeometry relative="1" as="geometry" />
        </mxCell>
      </root>
    </mxGraphModel>
  </diagram>
</mxfile>
